<svg width="1024" height="1024" viewBox="0 0 1024 1024" fill="none" xmlns="http://www.w3.org/2000/svg">
<g clip-path="url(#clip0_1_2)">
<path d="M994.344 704.46C1002.84 704.46 1009.37 708.38 1013.94 716.22C1019.17 724.06 1021.78 734.84 1021.78 748.56C1021.78 774.04 1015.58 794.293 1003.16 809.32C971.804 847.213 940.117 876.613 908.104 897.52C876.09 917.773 838.197 927.9 794.424 927.9C746.077 927.9 706.55 913.853 675.844 885.76C645.137 857.013 616.39 812.587 589.604 752.48C570.004 709.36 553.67 677.347 540.604 656.44C528.19 634.88 515.777 619.853 503.364 611.36C490.95 602.213 475.27 596.66 456.324 594.7L445.544 667.22C431.824 760.647 405.037 827.94 365.184 869.1C325.984 910.26 271.757 930.84 202.504 930.84C157.424 930.84 117.244 920.06 81.9635 898.5C47.3369 876.287 23.1635 848.193 9.44352 814.22C4.87018 802.46 2.58352 789.72 2.58352 776C2.58352 756.4 7.15685 739.413 16.3035 725.04C25.4502 710.667 37.2102 703.48 51.5835 703.48C60.0769 703.48 67.2635 705.767 73.1435 710.34C79.0235 714.26 84.5769 721.447 89.8035 731.9C110.057 769.793 127.697 796.253 142.724 811.28C158.404 826.307 177.677 833.82 200.544 833.82C226.677 833.82 248.89 822.06 267.184 798.54C286.13 774.367 299.524 737.453 307.364 687.8L321.084 594.7H305.404C290.377 594.7 278.617 590.453 270.124 581.96C261.63 573.467 257.384 561.707 257.384 546.68C257.384 529.693 261.63 516.3 270.124 506.5C279.27 496.047 290.377 490.82 303.444 490.82H335.784C340.357 458.807 343.624 436.593 345.584 424.18L375.964 203.68C358.977 201.72 342.97 200.74 327.944 200.74C272.41 200.74 230.27 210.54 201.524 230.14C172.777 249.087 158.404 276.527 158.404 312.46C158.404 328.793 160.037 342.187 163.304 352.64C167.224 362.44 172.124 373.547 178.004 385.96C180.617 391.187 181.924 397.067 181.924 403.6C181.924 417.973 175.064 430.713 161.344 441.82C148.277 452.273 133.577 457.5 117.244 457.5C96.3369 457.5 80.9835 448.353 71.1835 430.06C51.5835 395.433 41.7835 358.193 41.7835 318.34C41.7835 277.18 52.8902 239.613 75.1035 205.64C97.9702 171.667 132.27 144.553 178.004 124.3C223.737 103.393 280.25 92.9399 347.544 92.9399C376.944 92.9399 403.73 94.5733 427.904 97.8399C452.73 101.107 479.844 107.313 509.244 116.46C541.257 126.26 557.264 144.553 557.264 171.34C557.264 207.273 541.91 225.24 511.204 225.24L472.984 488.86C549.424 481.02 611.49 448.353 659.184 390.86C707.53 332.713 747.71 253.987 779.724 154.68C785.604 136.387 795.404 122.34 809.124 112.54C823.497 102.74 841.464 97.8399 863.024 97.8399C881.317 97.8399 895.364 102.087 905.164 110.58C915.617 118.42 920.844 129.853 920.844 144.88C920.844 149.453 919.537 156.967 916.924 167.42C884.257 275.22 837.544 360.807 776.784 424.18C716.024 487.553 649.71 529.693 577.844 550.6C602.67 556.48 622.924 565.3 638.604 577.06C654.937 588.82 668.657 603.52 679.764 621.16C690.87 638.147 703.61 661.993 717.984 692.7C738.237 735.82 757.184 766.527 774.824 784.82C792.464 802.46 813.044 811.28 836.564 811.28C857.47 811.28 877.397 804.42 896.344 790.7C915.29 776.327 939.137 752.153 967.884 718.18C975.724 709.033 984.544 704.46 994.344 704.46Z" fill="#E84C96"/>
</g>
<defs>
<clipPath id="clip0_1_2">
<rect width="1024" height="1024" fill="white"/>
</clipPath>
</defs>
</svg>
